<svg version="1.1" id="Layer_1" xmlns="http://www.w3.org/2000/svg" xmlns:xlink="http://www.w3.org/1999/xlink" x="0px" y="0px"
	 width="100%" viewBox="0 0 1024 1024" enable-background="new 0 0 1024 1024" xml:space="preserve">
<path fill="#000000" opacity="1.000000" stroke="none" 
	d="
M541.846802,446.510925 
	C541.804810,472.943756 542.979675,498.961731 540.426697,524.885559 
	C538.864990,540.743958 534.891541,556.033447 527.779053,570.384644 
	C520.090454,585.898315 507.023560,593.857422 490.339264,596.208801 
	C470.599792,598.990723 451.163269,596.485352 431.952271,591.859497 
	C421.226288,589.276794 414.122437,582.799988 410.960480,571.954224 
	C408.054321,561.985657 406.386169,551.873962 405.711121,541.533813 
	C404.752655,526.851685 405.088898,512.277039 408.611908,497.910492 
	C409.935364,492.513580 411.627686,487.312378 416.655396,484.001953 
	C418.754791,482.619629 418.746307,480.310852 418.611359,478.130096 
	C418.372467,474.269562 419.629242,470.934540 421.862579,467.877441 
	C429.601013,457.284607 437.543732,447.031250 451.637268,444.415405 
	C459.925751,442.877045 467.253143,446.027771 470.264984,454.038055 
	C475.574158,468.158203 475.077881,482.105103 466.792786,495.194092 
	C463.764526,499.978149 460.381012,504.537201 457.348572,509.318817 
	C454.153625,514.356689 455.830627,517.562622 461.910675,517.622375 
	C467.910339,517.681396 472.842346,515.040649 476.505493,510.221741 
	C481.907166,503.115906 485.377380,494.970764 488.821045,486.843719 
	C492.266846,478.711700 495.035187,470.327240 497.682648,461.894928 
	C506.144409,434.943695 485.348206,417.263550 463.862305,415.119781 
	C447.943512,413.531433 436.701141,420.643921 428.056854,433.308380 
	C414.550659,453.095886 406.181885,475.164062 399.237946,497.851501 
	C394.995392,511.713043 391.175446,525.701111 391.277222,540.388062 
	C391.476990,569.215576 404.162659,590.882202 429.049744,605.256409 
	C445.072113,614.510498 462.566559,618.941589 480.994629,619.841309 
	C486.657837,620.117859 492.307373,620.553284 497.740143,622.319458 
	C503.311646,624.130676 504.838928,626.626404 504.150635,632.462158 
	C504.111633,632.792725 504.060791,633.122253 504.004913,633.450500 
	C501.253235,649.625671 498.465790,651.747375 482.090179,649.779236 
	C473.475952,648.743835 465.014374,646.850220 456.579468,644.846802 
	C454.688202,644.397644 452.754669,643.571533 450.847931,644.997803 
	C450.468018,647.191406 451.806549,648.838806 452.576019,650.619324 
	C465.575958,680.701538 462.312195,709.132263 443.505463,735.722595 
	C435.111511,747.590576 422.379456,753.847412 409.557159,759.591919 
	C405.664246,761.335999 403.739960,763.767334 402.382080,767.703491 
	C396.149628,785.770020 394.532745,804.804138 390.336426,823.290161 
	C386.904968,838.406860 383.497650,853.515808 376.112091,867.338745 
	C371.594635,875.793579 365.352753,881.691345 354.949097,881.430359 
	C351.831421,881.352173 349.059601,880.477661 346.448792,878.896057 
	C340.845062,875.501160 339.981964,873.230530 341.985840,866.951233 
	C348.155792,847.617126 355.118225,828.514282 359.124268,808.548157 
	C360.006561,804.150940 360.457275,799.700134 360.864838,795.217773 
	C361.620300,786.908752 358.010193,781.492188 351.500031,776.772095 
	C332.360046,762.894775 310.248077,756.062378 288.132538,749.123169 
	C267.798096,742.742859 247.299667,736.854858 228.248428,726.938416 
	C199.655319,712.055359 183.001389,688.541992 176.710251,657.193909 
	C171.035492,628.917358 167.531708,600.389526 165.581100,571.621643 
	C163.608185,542.525085 163.203156,513.413147 162.883591,484.262421 
	C162.238052,425.375824 177.491058,370.732574 204.705765,318.970825 
	C220.938950,288.095642 240.311707,259.541565 265.315063,235.027740 
	C297.712036,203.265076 336.659119,183.601868 380.380981,172.760422 
	C407.278137,166.090897 434.653290,162.525421 462.190186,159.861832 
	C485.097015,157.646103 508.050720,156.914047 531.039490,156.976700 
	C539.081665,156.998611 546.989929,155.994583 554.886353,154.720932 
	C559.195679,154.025864 562.578369,151.711609 565.326355,148.383530 
	C569.297974,143.573517 571.896851,137.982880 574.499756,132.388000 
	C576.747864,127.555717 579.252930,122.831238 581.266846,117.904755 
	C583.677734,112.007339 587.765320,109.561127 594.092285,110.055801 
	C601.223999,110.613388 608.384583,110.856087 615.537537,111.071533 
	C621.103088,111.239159 623.777283,114.309349 625.204773,119.386414 
	C629.266479,133.832397 632.125854,148.541306 635.135010,163.219727 
	C637.710083,175.780502 640.281311,188.337708 643.556824,200.745132 
	C645.636658,208.623779 650.276550,214.160233 657.239746,218.349915 
	C676.533386,229.958725 696.863037,239.630844 716.541077,250.516708 
	C741.926086,264.559753 762.828186,283.544312 779.665161,307.076416 
	C781.397217,309.497192 782.918701,312.141052 784.093384,314.872559 
	C786.283752,319.965820 785.987366,324.967285 782.433838,329.469208 
	C780.887573,331.428162 779.258118,333.329285 777.566101,335.164185 
	C768.370911,345.136200 764.025818,356.289978 768.196411,369.964783 
	C769.814087,375.269043 769.199524,380.880493 768.452148,386.352081 
	C767.324951,394.603577 766.343140,402.883484 764.905396,411.082184 
	C761.836731,428.580719 767.085449,444.026642 776.234619,458.530487 
	C780.232422,464.868042 784.329468,471.164093 788.747192,477.211823 
	C804.170288,498.325775 815.785950,521.549316 826.772400,545.132446 
	C829.046631,550.014343 830.375366,555.132751 830.242859,560.582397 
	C830.061951,568.020691 827.045288,573.667175 820.297974,577.227417 
	C809.832153,582.749756 798.425598,585.085999 786.974670,587.280029 
	C782.263611,588.182678 777.511597,588.871643 772.973572,589.625366 
	C771.619873,592.244629 773.227661,593.771118 774.384460,595.304688 
	C780.310608,603.160889 781.535583,611.966309 779.729797,621.374023 
	C778.779419,626.325500 778.683533,631.085815 780.095886,636.099792 
	C782.560791,644.850891 779.663635,652.888428 775.179443,660.350159 
	C772.264221,665.201172 768.878601,669.766846 765.841614,674.547913 
	C761.074097,682.053467 760.352173,689.576416 765.213928,697.541992 
	C773.071777,710.416565 777.095032,724.510620 774.892883,739.548035 
	C771.982971,759.417847 758.837769,771.613708 737.897034,775.348816 
	C724.921997,777.663025 711.779480,778.270691 698.678894,779.278076 
	C690.539917,779.903992 682.484253,780.959290 674.469116,782.520264 
	C665.073608,784.349976 659.946960,790.232056 658.259277,799.271301 
	C655.436035,814.392822 656.959717,829.419189 659.792114,844.370056 
	C663.729370,865.152893 670.437256,885.251709 675.022583,905.875977 
	C676.608704,913.010071 676.006592,913.960388 668.675354,914.265015 
	C664.697815,914.430298 660.609497,914.702576 656.734497,914.011169 
	C647.385193,912.343140 640.738159,907.260681 637.541931,897.871643 
	C631.922607,881.364990 629.279114,864.254211 627.048645,847.089966 
	C624.727966,829.231934 623.523987,811.282471 625.804504,793.289246 
	C626.644348,786.663269 627.968323,780.161560 630.500305,773.929199 
	C635.433777,761.785828 644.579895,755.439880 657.394287,753.726685 
	C670.019470,752.038757 682.678711,752.933716 695.324707,752.867065 
	C707.306641,752.803955 719.303345,753.396729 731.144714,750.734619 
	C742.108582,748.269775 750.669434,742.999390 754.031677,731.610168 
	C757.583740,719.577576 755.416443,708.563477 747.546387,698.749512 
	C745.846985,696.630371 743.372009,695.474670 741.145935,694.015808 
	C733.826050,689.218445 732.657288,683.753601 738.042419,676.845398 
	C741.198669,672.796631 745.072876,669.299011 748.700317,665.628723 
	C751.632263,662.661987 754.632568,659.759216 756.860901,656.199463 
	C760.400024,650.545837 759.435425,646.482788 753.521362,643.438110 
	C745.037292,639.070251 735.610718,638.446289 726.387146,637.250061 
	C716.321777,635.944763 706.217712,634.872620 696.089172,637.069031 
	C694.172363,637.484680 692.100830,637.270996 690.104492,637.213623 
	C687.880127,637.149719 685.589966,636.849304 684.904663,634.252869 
	C684.165039,631.450684 685.476379,629.346619 687.872375,627.989868 
	C693.647095,624.719666 700.067871,623.707092 706.517395,622.797791 
	C722.723877,620.512817 739.106567,621.340210 755.363647,619.980652 
	C757.272522,619.820984 759.691956,620.536072 760.776917,618.337830 
	C761.965820,615.928955 760.531006,613.785095 759.131653,611.917847 
	C754.574158,605.836792 748.437195,601.464233 742.523804,596.864075 
	C737.917419,593.280640 733.171448,589.863953 730.322266,584.529602 
	C727.393921,579.046997 728.129761,575.643982 733.337158,572.203552 
	C746.089355,563.778320 760.382690,560.472473 775.423340,559.737244 
	C785.770630,559.231506 796.056458,560.407776 806.361023,560.969360 
	C811.853882,561.268738 812.663452,560.598083 811.011108,555.351013 
	C807.282043,543.509094 801.513184,532.568665 795.075439,522.066223 
	C781.496887,499.914215 767.964539,477.706604 751.344177,457.600525 
	C743.756958,448.422028 739.715088,438.386475 743.254028,426.151917 
	C744.874390,420.549957 742.808167,417.393341 737.319214,415.143738 
	C730.107361,412.188049 722.435425,411.329041 714.774048,411.474243 
	C695.077515,411.847382 675.524536,410.143127 655.934875,408.481689 
	C641.780762,407.281281 627.628540,408.112915 613.725281,411.479950 
	C611.883972,411.925903 609.525269,413.388000 608.471252,410.791779 
	C607.354675,408.041656 610.001709,406.941833 611.880127,406.156281 
	C621.139954,402.284027 630.764160,399.758240 640.785645,398.794830 
	C659.429993,397.002625 678.057007,399.202759 696.697937,399.000671 
	C711.688721,398.838135 726.693665,399.332184 741.422974,395.765350 
	C749.628540,393.778259 753.711670,388.925873 753.698120,380.501221 
	C753.683105,371.135315 750.563843,363.446777 741.937927,358.325012 
	C729.047180,350.670959 716.374268,342.640656 703.770020,334.519989 
	C700.448059,332.379791 698.151428,332.730804 695.512024,335.341736 
	C690.990234,339.814667 687.231689,344.913330 683.243958,349.822815 
	C665.451050,371.728271 630.051147,388.640747 595.082214,373.386322 
	C594.047180,372.934814 592.941650,372.644989 591.857544,372.275879 
	C590.658386,374.580414 591.940674,376.417023 592.434570,378.252167 
	C594.801636,387.046661 593.401245,394.570282 586.168213,400.823883 
	C578.393860,407.545532 569.317566,412.134125 560.622437,417.365570 
	C558.195374,418.825806 555.854248,420.481018 553.296326,421.662689 
	C542.586792,426.610077 540.088928,435.317261 541.846802,446.510925 
M185.304581,614.198425 
	C185.909393,618.144592 186.410995,622.109924 187.137207,626.033630 
	C190.012283,641.567566 191.862488,657.348633 198.880692,671.846802 
	C207.516785,689.687439 222.527237,697.219788 241.439972,698.522095 
	C244.990677,698.766663 246.561493,697.140686 245.902618,693.264526 
	C244.935516,687.575012 242.569214,682.452026 240.092712,677.376709 
	C234.896500,666.727539 230.319366,655.894165 227.545273,644.301270 
	C222.302261,622.390930 219.596970,600.179382 218.570984,577.701843 
	C217.236115,548.457153 215.314865,519.251648 216.564774,489.925934 
	C217.494263,468.117950 219.695892,446.506622 223.685135,425.068085 
	C230.242081,389.830322 240.807724,355.937561 258.309479,324.489227 
	C287.050873,272.844818 331.991333,239.680740 384.577850,216.003677 
	C426.803467,196.991608 471.732697,191.238708 517.722961,192.811371 
	C523.371216,193.004501 528.994751,194.137421 534.072693,196.885757 
	C539.439514,199.790390 540.970642,203.614578 539.173279,209.325836 
	C538.223938,212.342453 537.186951,215.337357 536.048889,218.287811 
	C527.121765,241.430481 515.825989,263.242188 499.668976,282.264771 
	C493.901672,289.054901 486.213776,291.151855 477.631500,290.476501 
	C453.811493,288.601959 430.606842,283.292847 407.410889,277.892609 
	C395.588715,275.140259 383.891632,271.759399 371.817291,270.201599 
	C369.439301,269.894775 366.431885,269.344910 365.413635,272.508972 
	C364.361237,275.779114 365.233124,278.791260 368.148560,280.924347 
	C371.036438,283.037292 374.408722,283.979126 377.831573,284.766083 
	C416.016449,293.545410 454.998962,297.164398 493.679779,302.755829 
	C529.505859,307.934570 548.690979,326.127441 559.043701,360.218445 
	C561.339600,367.778748 560.197266,374.890198 553.934875,380.270172 
	C546.650635,386.528015 538.176208,389.937653 528.423523,390.319244 
	C516.861267,390.771576 506.480133,386.796783 496.264618,382.251862 
	C460.103546,366.163605 422.621002,353.967438 384.200378,344.741638 
	C354.821808,337.687073 325.045227,333.483429 294.685333,336.344971 
	C288.607605,336.917816 282.274719,336.932800 279.451935,344.304413 
	C277.246796,350.063019 274.936829,355.728851 273.652496,361.803925 
	C272.784668,365.908875 274.353027,367.942780 278.205566,368.378265 
	C284.982269,369.144318 291.782166,370.300262 298.569305,370.279877 
	C335.438171,370.169128 372.168427,371.256165 408.455719,378.818451 
	C436.743195,384.713531 464.601593,391.827240 490.661407,404.710449 
	C496.929993,407.809387 503.014343,411.291718 509.612030,413.692291 
	C518.454956,416.909821 527.776489,418.906250 536.301514,414.272186 
	C549.766296,406.952942 562.241028,397.906738 574.026428,388.100952 
	C580.731689,382.521942 581.164368,377.663788 576.699036,369.983521 
	C572.489319,362.742859 569.297119,355.103241 566.215515,347.352631 
	C561.480408,335.443604 556.850342,323.480286 550.203186,312.417267 
	C546.475769,306.213623 541.687805,302.124908 534.317017,300.740814 
	C528.303528,299.611664 522.145996,298.305420 516.875488,294.894562 
	C513.566467,292.753113 510.482025,289.962067 512.822815,285.442963 
	C520.402649,270.809570 527.807556,256.090118 537.155090,242.429962 
	C557.662842,212.460556 579.510742,183.397797 598.270508,152.242447 
	C602.653625,144.963242 607.362610,137.849289 610.079956,129.722412 
	C611.130554,126.580208 612.351990,122.920586 608.247986,120.984123 
	C604.203796,119.075920 601.432434,121.723564 599.581482,124.810715 
	C597.192749,128.794800 595.226562,133.051422 593.309937,137.295258 
	C589.747375,145.183624 586.727112,153.324356 581.838806,160.566544 
	C578.252014,165.880493 573.585999,168.833969 566.950928,169.156586 
	C542.843933,170.328766 518.751709,171.803909 494.650665,173.103455 
	C470.024506,174.431335 445.535126,176.982742 421.250458,181.310577 
	C391.615295,186.591965 362.652557,194.168961 335.705688,207.990128 
	C296.646210,228.023926 265.457733,257.112976 239.838745,292.426147 
	C215.507111,325.964813 197.230682,362.527252 188.066193,403.024689 
	C179.312805,441.705505 178.326157,481.154449 178.874680,520.698608 
	C179.304840,551.709717 181.539764,582.546204 185.304581,614.198425 
M542.508667,270.970703 
	C538.687683,276.738861 534.866699,282.507019 531.098389,288.195648 
	C533.559204,290.871185 536.411804,290.966309 538.907104,291.346741 
	C552.102722,293.358582 560.357178,301.192139 565.400818,313.061737 
	C566.702576,316.125305 568.114014,319.142242 569.474121,322.181000 
	C572.465637,328.864410 575.193848,335.672302 579.164917,341.879517 
	C588.445251,356.385773 602.407288,363.811646 618.883118,364.215240 
	C632.498169,364.548767 645.837280,360.228638 657.979248,353.520782 
	C669.664978,347.065002 676.770874,337.425934 677.842407,323.735657 
	C678.072937,320.790771 678.913696,317.832397 679.877686,315.018768 
	C681.922302,309.050751 686.009094,306.594269 692.210144,307.588074 
	C703.296692,309.364899 713.577087,313.806671 724.075317,317.508514 
	C731.760559,320.218353 739.385742,323.089935 747.480652,324.432861 
	C756.297241,325.895508 761.831604,320.189423 759.804443,311.560699 
	C758.063538,304.150208 753.597778,298.276184 748.412903,293.076385 
	C730.978699,275.591797 711.185059,261.326538 688.736877,250.950378 
	C672.411682,243.404434 655.089722,238.353043 638.556335,231.239639 
	C630.475769,227.763016 627.846985,222.481369 627.707031,214.459229 
	C627.387756,196.147842 621.255615,178.978012 616.817200,160.342422 
	C591.844055,197.524506 567.379883,233.948700 542.508667,270.970703 
M353.367798,664.131226 
	C352.626556,663.459961 351.964111,662.662964 351.129883,662.140137 
	C348.215149,660.313660 345.634705,655.569153 341.879791,658.366028 
	C338.032837,661.231445 340.971344,665.588074 342.531708,668.844788 
	C350.156830,684.759521 360.243896,698.978760 373.094330,711.122864 
	C376.965668,714.781433 381.293060,717.959290 386.024994,720.481506 
	C400.842468,728.379456 420.875244,722.415955 427.959747,707.216919 
	C435.765991,690.469543 437.509369,672.652283 431.105652,655.218323 
	C420.857819,627.318787 403.952148,603.392517 383.770996,581.765991 
	C377.887299,575.460999 370.674652,571.066345 362.247040,568.692383 
	C350.701630,565.440063 338.925537,563.387939 327.142487,561.270691 
	C311.270996,558.418762 295.128021,557.606323 279.293793,554.382019 
	C267.311310,551.942078 255.069717,553.162476 242.933960,553.468933 
	C239.800476,553.548035 238.190048,555.387878 238.297379,558.723389 
	C238.431305,562.885437 238.335205,567.054993 238.329697,571.221313 
	C238.317963,580.098022 238.600876,580.623901 247.190018,582.706238 
	C263.229828,586.595032 279.667969,587.808838 296.007935,589.596069 
	C314.184601,591.584167 332.413269,593.101929 350.582397,595.151672 
	C360.215912,596.238464 368.332489,600.565552 374.392670,608.381653 
	C384.747070,621.736328 391.679291,636.759338 396.340790,652.921814 
	C398.213165,659.414001 398.645355,666.021423 398.255096,672.707458 
	C397.739899,681.533997 392.487091,688.207214 384.078522,690.666687 
	C376.112183,692.996887 371.623413,687.831665 367.375488,682.543396 
	C365.192017,679.825134 363.392761,676.794312 361.468323,673.872803 
	C359.259796,670.519958 356.820435,667.365112 353.367798,664.131226 
M398.260254,310.426331 
	C396.299866,310.047668 394.328522,309.718018 392.380859,309.282471 
	C379.347595,306.368011 366.348877,303.300629 355.254333,295.297211 
	C347.165222,289.461853 344.865570,282.646484 347.545868,273.011108 
	C348.375671,270.028198 349.414062,267.103241 350.519867,263.641724 
	C349.357086,263.952942 348.649414,263.950897 348.199493,264.290405 
	C330.797577,277.422058 312.799347,289.828430 297.497467,305.532288 
	C295.284943,307.802948 293.536499,310.525391 292.515686,313.542816 
	C291.472900,316.625092 292.150848,318.587158 296.081116,318.746155 
	C309.045441,319.270569 321.996918,320.103577 334.959473,320.681122 
	C346.597717,321.199615 358.251740,322.050964 369.662109,324.173645 
	C417.731110,333.115906 463.497162,348.914734 506.821167,371.633606 
	C515.860352,376.373657 524.692993,376.183624 533.551758,371.476959 
	C539.507751,368.312469 541.042664,364.340027 538.283447,358.271545 
	C534.694519,350.378082 530.490173,342.809082 525.048950,335.987396 
	C521.734009,331.831329 517.672852,328.963257 512.511597,327.386963 
	C497.458221,322.789368 481.893829,321.143158 466.376251,319.467987 
	C443.876831,317.039062 421.449951,314.155182 398.260254,310.426331 
M352.066284,491.295258 
	C360.008331,492.124481 367.962433,492.854950 375.887329,493.824493 
	C379.858521,494.310303 382.033966,493.198090 382.939026,488.967896 
	C384.400421,482.137451 386.645721,475.495789 389.289642,469.014221 
	C391.030212,464.747314 392.863708,460.518341 394.941559,455.594849 
	C386.573822,453.399170 378.873444,450.756714 370.952667,449.422974 
	C351.317230,446.116669 331.598877,443.281036 311.877533,440.515533 
	C302.507721,439.201660 293.060028,437.752655 283.638397,437.686890 
	C273.545532,437.616455 263.488708,439.664856 253.315628,439.592316 
	C250.654480,439.573303 248.950760,441.652191 247.918091,444.170532 
	C245.515518,450.029633 243.504929,455.998627 242.298203,462.228119 
	C240.655899,470.706055 242.115372,473.989410 250.264084,477.323273 
	C258.407990,480.655151 266.843109,482.936462 275.738708,483.743774 
	C300.894226,486.026886 326.015869,488.683258 352.066284,491.295258 
M426.135376,401.353821 
	C425.325592,401.164490 424.513245,400.985321 423.706360,400.784363 
	C402.877472,395.597046 381.919373,391.093323 360.481628,389.283539 
	C341.716492,387.699402 322.895172,388.607117 304.106079,388.137207 
	C294.656219,387.900818 284.921143,388.243591 275.949829,385.017639 
	C258.945251,378.902985 258.027466,383.277649 253.609406,397.332031 
	C248.730789,412.851501 252.284897,417.831970 268.396301,417.564667 
	C283.917786,417.307159 299.254089,418.554596 314.525604,421.284729 
	C341.491669,426.105499 367.984985,433.454803 395.367920,436.088135 
	C404.916504,437.006348 409.250275,435.479309 413.858307,427.088287 
	C417.763428,419.977203 422.473267,413.687775 429.193542,408.975739 
	C430.876678,407.795593 432.845154,406.580170 433.230011,404.107635 
	C431.583862,402.074158 429.006134,402.382233 426.135376,401.353821 
M277.139618,606.469910 
	C264.742828,605.575562 252.618515,603.315125 240.862610,598.226379 
	C239.417328,605.202881 241.038757,611.092590 241.378510,617.008240 
	C242.278351,632.676575 249.429123,643.365051 264.924988,648.628235 
	C281.126556,654.130981 297.698822,657.173523 314.624268,658.595764 
	C322.844818,659.286560 322.868073,658.966248 326.038574,651.285950 
	C326.419159,650.363953 326.826721,649.449402 327.283844,648.563416 
	C333.086304,637.317505 342.366608,634.949829 352.871735,642.038757 
	C358.787048,646.030518 363.124603,651.450195 366.918243,657.404968 
	C369.419373,661.330872 372.102020,665.144409 374.799530,668.939880 
	C375.573395,670.028748 376.714081,670.918762 378.228821,670.397461 
	C379.530731,669.949524 379.653687,668.721436 379.872955,667.554932 
	C381.082214,661.120667 380.186188,655.222778 377.038818,649.271057 
	C366.343048,629.045471 350.114838,617.057068 327.430664,613.040405 
	C311.034393,610.137207 294.511444,608.637085 277.139618,606.469910 
M326.716522,541.643494 
	C343.592255,544.230103 360.221344,547.804138 375.479065,554.744812 
	C376.981689,553.192932 376.958496,552.172180 376.835938,551.183167 
	C375.643097,541.556335 375.069977,531.927734 376.962433,522.324707 
	C377.524780,519.471130 375.643707,518.868469 373.639343,518.369568 
	C362.329468,515.554810 350.943726,513.104309 339.441010,511.195770 
	C323.177948,508.497437 306.757355,507.025116 290.371399,505.547852 
	C276.020111,504.254059 262.203735,500.688385 248.228439,497.725067 
	C243.258209,496.671173 240.125458,498.530487 238.364761,503.029877 
	C237.150574,506.132721 236.357025,509.321655 236.276428,512.730957 
	C236.126328,519.080139 237.052658,525.370117 237.113708,531.679932 
	C237.153015,535.739807 238.596725,536.713989 242.401733,536.771912 
	C257.030426,536.994629 271.631104,535.242371 286.287933,536.640930 
	C299.530212,537.904602 312.751373,539.200500 326.716522,541.643494 
M406.107605,233.710571 
	C392.132172,237.529968 378.838043,242.764709 367.101807,252.361816 
	C368.959991,252.805573 370.373657,253.295624 371.824890,253.466324 
	C387.670837,255.330383 403.528564,257.095001 419.371429,258.984528 
	C440.018188,261.447021 460.654480,263.997101 481.295044,266.511322 
	C484.080200,266.850586 486.907562,267.685089 488.829376,264.476746 
	C496.011658,252.486328 504.212494,241.122818 510.867767,228.808273 
	C513.630676,223.696014 512.794800,221.851379 507.013153,220.444351 
	C497.317413,218.084763 487.423004,218.627335 477.705109,219.629883 
	C453.706543,222.105667 430.122589,226.978668 406.107605,233.710571 
M514.234497,472.371338 
	C514.658752,480.511597 514.912048,488.665222 515.544922,496.789215 
	C516.660889,511.115417 517.139893,525.473755 514.009521,539.549133 
	C508.976105,562.181580 500.664520,570.543884 481.718628,573.869263 
	C467.649597,576.338623 453.555756,574.840759 439.546967,572.587524 
	C433.621307,571.634338 429.981812,568.048462 428.151306,562.627014 
	C421.252167,542.193665 418.796814,521.526611 424.994232,500.384277 
	C426.024170,496.870789 428.078918,493.533875 427.827271,489.414886 
	C424.064270,489.442047 421.898102,491.318024 420.401184,494.096069 
	C418.730804,497.195953 417.670532,500.527557 417.125732,504.011597 
	C414.350922,521.757141 414.359589,539.492432 417.458496,557.195129 
	C419.483521,568.763184 424.645142,577.129150 437.534821,579.363403 
	C453.817535,582.185669 470.124542,584.211060 486.633972,583.556152 
	C499.812683,583.033386 510.396606,577.918335 516.239929,565.120911 
	C524.850830,546.262146 529.973694,526.497925 530.572937,505.841583 
	C531.181152,484.875336 530.752869,463.877319 530.652039,442.893860 
	C530.635315,439.420227 530.175903,435.912445 529.554260,432.487000 
	C528.729858,427.944641 524.856506,426.731079 521.399048,429.826447 
	C519.071167,431.910522 518.119934,434.809723 517.335022,437.713287 
	C514.349365,448.757935 514.003967,460.055084 514.234497,472.371338 
M438.908569,547.533020 
	C441.839569,553.198730 446.501373,556.828796 452.590424,558.341248 
	C463.195618,560.975464 473.698914,560.300110 483.947449,556.466248 
	C491.121368,553.782654 495.849854,548.956665 497.736542,541.284668 
	C501.400116,526.387085 504.762909,511.472900 503.902039,495.978241 
	C503.808441,494.293976 504.452942,492.270142 502.212341,490.952087 
	C499.850494,492.772919 498.961273,495.492615 498.033386,498.076294 
	C494.624268,507.568970 489.764832,516.214844 483.410919,524.042053 
	C478.681000,529.868774 473.917145,535.665100 467.475494,539.730896 
	C454.430328,547.964783 440.706848,542.053467 438.413116,526.934082 
	C436.948853,517.282166 440.483154,508.621826 445.319153,500.469543 
	C449.479645,493.455872 453.894196,486.564697 456.016174,478.571869 
	C457.106659,474.464233 457.925140,470.253448 453.696381,467.265167 
	C449.876312,464.565735 444.186249,465.027527 440.272522,468.415497 
	C436.733734,471.478851 434.313141,475.379333 432.439026,479.593323 
	C438.584930,483.743134 439.356812,485.524963 437.893982,492.626282 
	C436.988861,497.020416 436.114044,501.442963 434.822388,505.731293 
	C430.529602,519.983643 431.987976,533.651367 438.908569,547.533020 
M328.616058,678.823120 
	C318.172089,673.732117 306.793518,673.299255 295.556213,672.392151 
	C284.136688,671.470398 272.594086,671.667786 261.581482,667.749451 
	C260.091949,667.219543 258.399170,666.630859 256.290497,668.549438 
	C261.888733,679.631836 267.438293,690.877136 276.209595,700.176697 
	C276.868683,700.875488 277.851532,701.331177 278.760132,701.723145 
	C295.073486,708.761230 312.101562,712.070740 329.848572,710.844055 
	C337.761292,710.296997 342.770081,703.764832 341.569122,695.843994 
	C340.419312,688.260254 335.807556,682.929138 328.616058,678.823120 
z"/>
<path fill="#000000" opacity="1.000000" stroke="none" 
	d="
M672.409302,503.706543 
	C651.388428,507.704041 631.285828,504.351074 611.312683,499.398315 
	C606.650330,498.242188 605.802246,494.429108 605.866272,490.420166 
	C605.931458,486.335083 608.307312,484.169495 612.343689,483.485229 
	C621.300903,481.966797 629.874634,484.192505 638.500671,485.944305 
	C647.462830,487.764374 656.311707,490.191498 665.588318,490.072174 
	C675.913757,489.939362 685.283325,487.287598 693.349609,480.575256 
	C695.334961,478.923187 697.906738,476.182770 700.279175,478.186554 
	C702.913208,480.411163 700.560425,483.488373 699.056091,485.741486 
	C692.738708,495.203583 683.504028,500.496033 672.409302,503.706543 
z"/>
<path fill="#000000" opacity="1.000000" stroke="none" 
	d="
M696.348633,433.179138 
	C701.653198,433.828949 705.815247,435.580383 708.221680,440.193573 
	C710.769592,445.078278 709.246521,447.672699 703.826050,448.338287 
	C688.876038,450.173950 673.835022,448.022430 658.912659,449.335876 
	C644.606689,450.595062 630.746765,454.166382 617.496033,459.818024 
	C613.973206,461.320587 610.553223,463.035004 606.764282,463.821777 
	C605.003784,464.187408 603.353760,464.133240 602.316772,462.502594 
	C601.361145,460.999725 602.310730,459.616852 603.056580,458.326904 
	C605.153931,454.699768 608.533875,452.556549 612.140259,450.758911 
	C626.584473,443.558838 642.142212,439.875519 657.822327,436.778320 
	C670.371033,434.299652 682.999207,432.011475 696.348633,433.179138 
z"/>
<path fill="#000000" opacity="1.000000" stroke="none" 
	d="
M668.499390,481.737976 
	C660.929199,482.443665 657.355103,479.240723 656.149780,471.196014 
	C654.976624,463.365906 660.086365,455.145935 666.948975,453.823425 
	C675.523438,452.170990 682.404053,456.228729 684.687927,464.284546 
	C686.774658,471.645081 682.635559,477.931458 674.630737,479.477386 
	C672.924133,477.740692 674.424744,476.042206 674.892090,474.461639 
	C675.564270,472.188293 676.270386,469.903870 675.465271,467.644409 
	C674.673645,465.422760 673.264832,463.109161 670.470947,463.849304 
	C667.910522,464.527618 666.978455,466.878784 667.521667,469.438721 
	C668.036316,471.864319 668.869690,474.225067 669.613770,476.598419 
	C670.174438,478.386719 670.769226,480.143005 668.499390,481.737976 
z"/>
<path fill="#000000" opacity="1.000000" stroke="none" 
	d="
M652.723022,299.300446 
	C662.375000,309.261688 661.777100,319.883545 650.911682,327.487396 
	C639.941345,335.164673 627.551392,339.736481 614.207642,340.521973 
	C607.414734,340.921844 601.319336,336.940155 596.137085,332.900085 
	C584.923889,324.158264 575.388977,313.722015 567.666809,301.683289 
	C562.560669,293.722992 562.743530,286.092743 568.431458,278.563995 
	C574.670166,270.306061 581.311279,262.420074 589.636230,256.146667 
	C596.459351,251.004990 599.257080,250.839752 606.198608,255.824783 
	C620.880981,266.368927 633.335388,279.356079 645.742004,292.382599 
	C647.918823,294.668182 650.218933,296.836304 652.723022,299.300446 
M623.184570,289.331390 
	C617.727600,285.515106 612.259766,281.714142 606.820862,277.872284 
	C605.375732,276.851471 604.026001,276.387451 602.206482,277.122223 
	C595.574219,279.800507 588.716125,281.940399 582.430115,285.435638 
	C575.305786,289.396881 574.714172,292.126312 579.508118,298.860443 
	C585.943542,307.900391 594.130371,315.227814 602.612366,322.238770 
	C606.496521,325.449310 611.122620,326.715118 616.118103,326.255096 
	C619.753113,325.920380 623.358459,325.271027 626.981323,324.794678 
	C639.385681,323.163574 643.735046,313.811340 636.977966,303.246216 
	C633.514648,297.831085 628.815002,293.616669 623.184570,289.331390 
z"/>
</svg>